<?xml version="1.0" standalone="no"?><!DOCTYPE svg PUBLIC "-//W3C//DTD SVG 1.1//EN" "http://www.w3.org/Graphics/SVG/1.1/DTD/svg11.dtd"><svg t="1606730288346" class="icon" viewBox="0 0 1024 1024" version="1.1" xmlns="http://www.w3.org/2000/svg" p-id="62487" xmlns:xlink="http://www.w3.org/1999/xlink" width="200" height="200"><defs><style type="text/css">@font-face { font-family: element-icons; src: url("chrome-extension://moombeodfomdpjnpocobemoiaemednkg/fonts/element-icons.woff") format("woff"), url("chrome-extension://moombeodfomdpjnpocobemoiaemednkg/fonts/element-icons.ttf ") format("truetype"); }
</style></defs><path d="M940.463 239.832L770.695 37.726c-8.084-5.39-16.169-10.779-24.253-10.779H150.905c-40.42 0-75.452 35.032-75.452 75.453v819.2c0 40.421 35.031 75.453 75.452 75.453H870.4c40.421 0 75.453-35.032 75.453-75.453V258.695c2.694-5.39 0-13.474-5.39-18.863zM517.39 738.358c-5.389 8.084-16.168 16.168-26.947 16.168H350.316c-16.169 0-29.642-13.473-29.642-29.642s13.473-29.642 29.642-29.642h142.82c10.78 0 21.559 5.39 26.948 16.169 2.695 5.389 2.695 18.863-2.695 26.947z m132.043-177.853H350.316c-16.169 0-29.642-13.473-29.642-29.642s13.473-29.642 29.642-29.642h299.116c16.168 0 29.642 13.474 29.642 29.642s-13.474 29.642-29.642 29.642z m0-183.242H350.316c-16.169 0-29.642-13.474-29.642-29.642s13.473-29.642 29.642-29.642h299.116c16.168 0 29.642 13.474 29.642 29.642s-13.474 29.642-29.642 29.642z m226.357-94.316c-2.694 2.695-5.389 2.695-10.778 2.695H751.83c-8.084 0-16.168-8.084-16.168-16.168V134.737c0-8.084 8.084-16.169 16.169-16.169 5.39 0 8.084 2.695 13.473 5.39l113.18 134.737c5.389 8.084 5.389 18.863-2.696 24.252z" p-id="62488"></path></svg>