<?xml version="1.0" standalone="no"?><!DOCTYPE svg PUBLIC "-//W3C//DTD SVG 1.1//EN" "http://www.w3.org/Graphics/SVG/1.1/DTD/svg11.dtd"><svg t="1606378543356" class="icon" viewBox="0 0 1024 1024" version="1.1" xmlns="http://www.w3.org/2000/svg" p-id="15237" xmlns:xlink="http://www.w3.org/1999/xlink" width="200" height="200"><defs><style type="text/css">@font-face { font-family: element-icons; src: url("chrome-extension://moombeodfomdpjnpocobemoiaemednkg/fonts/element-icons.woff") format("woff"), url("chrome-extension://moombeodfomdpjnpocobemoiaemednkg/fonts/element-icons.ttf ") format("truetype"); }
</style></defs><path d="M0 0h1024v1024H0z" fill="#FFFFFF" fill-opacity=".01" p-id="15238"></path><path d="M512 450.016c16.864 0 30.528 13.664 30.528 30.496l-0.032 292.352 80.384-80.416 2.88-2.528c12.064-9.216 30.016-7.744 41.792 4.032 12.736 12.736 13.408 32.736 1.472 44.64l-107.904 107.904c-23.808 23.84-63.808 22.496-89.28-2.976l-115.392-115.36-2.72-3.072c-10.048-12.704-9.76-30.592 1.248-41.6 11.904-11.904 31.904-11.232 44.64 1.504l81.856 81.888v-286.368c0-16.832 13.664-30.496 30.528-30.496zM512 128c131.2 0 239.392 99.36 254.272 227.392C875.648 370.304 960 464.64 960 578.816c0 124.48-100.288 225.376-224 225.376l-3.744-0.192a32.128 32.128 0 0 1-28.256-32c0-16.512 12.352-30.112 28.256-32L736 739.84c88.352 0 160-72.096 160-160.992 0-80.832-59.552-148.864-138.336-159.584l-49.216-6.72-5.76-49.632C691.52 266.176 609.632 192.416 512 192.416c-97.664 0-179.456 73.76-190.656 170.464l-5.76 49.696-49.28 6.688C187.616 429.952 128 497.984 128 578.816 128 665.376 195.904 736 281.056 739.648L288 739.84c17.664 0 32 14.4 32 32.192 0 16.512-12.352 30.144-28.256 32L288 804.16c-123.712 0-224-100.896-224-225.376 0-114.176 84.352-208.512 193.76-223.36C272.64 227.328 380.8 128 512 128z" fill="" p-id="15239"></path></svg>